<?xml version="1.0" encoding="UTF-8"?>
<svg id="V4.3" xmlns="http://www.w3.org/2000/svg" xmlns:xlink="http://www.w3.org/1999/xlink" viewBox="0 0 761.1023622047 761.1023622047">
  <defs>
    <style>
      .cls-1 {
        fill: #475059;
      }

      .cls-1, .cls-2, .cls-3, .cls-4, .cls-5 {
        stroke-width: 0px;
      }

      .cls-2 {
        fill: none;
      }

      .cls-6 {
        filter: url(#drop-shadow-1);
      }

      .cls-3 {
        fill: #fff;
      }

      .cls-4 {
        fill: url(#radial-gradient-2);
      }

      .cls-7 {
        clip-path: url(#clippath);
      }

      .cls-5 {
        fill: url(#radial-gradient);
      }
    </style>
    <clipPath id="clippath">
      <rect class="cls-2" x="-.0000000039" y="-.0000000084" width="761.1023622106" height="761.1023622233" rx="152.2204724267" ry="152.2204724267"/>
    </clipPath>
    <radialGradient id="radial-gradient" cx="404.7129764204" cy="418.3193249038" fx="293.3940533701" fy="223.5106358426" r="763.4255393145" gradientTransform="translate(13.6704244947 85.2406748852) rotate(2.4118711964) scale(1 .7561866159)" gradientUnits="userSpaceOnUse">
      <stop offset="0" stop-color="#000" stop-opacity="0"/>
      <stop offset=".9549011637" stop-color="#000" stop-opacity=".349999994"/>
    </radialGradient>
    <radialGradient id="radial-gradient-2" cx="380.5511811024" cy="380.5511811024" fx="380.5511811024" fy="380.5511811024" r="418.1102362205" gradientUnits="userSpaceOnUse">
      <stop offset="0" stop-color="#000" stop-opacity="0"/>
      <stop offset=".8624674805" stop-color="#000" stop-opacity=".0315768421"/>
      <stop offset="1" stop-color="#000" stop-opacity=".0500000007"/>
    </radialGradient>
    <filter id="drop-shadow-1" filterUnits="userSpaceOnUse">
      <feOffset dx="0" dy="0"/>
      <feGaussianBlur result="blur" stdDeviation="17.0078740157"/>
      <feFlood flood-color="#000" flood-opacity=".2"/>
      <feComposite in2="blur" operator="in"/>
      <feComposite in="SourceGraphic"/>
    </filter>
  </defs>
  <g class="cls-7">
    <g id="bg_dark" data-name="bg dark">
      <rect id="_210_21_35_" data-name="210° 21% 35%" class="cls-1" x="-37.5590551181" y="-37.5590551181" width="836.2204724409" height="836.2204724409"/>
      <rect id="gradient" class="cls-5" x="-37.5590551181" y="-37.5590551181" width="836.2204724409" height="836.2204724409"/>
      <rect id="vignette" class="cls-4" x="-37.5590551181" y="-37.5590551181" width="836.2204724409" height="836.2204724409"/>
    </g>
  </g>
  <g id="S2L_favicon" data-name="S2L favicon" class="cls-6">
    <path class="cls-3" d="m89.6706369952,444.810323419v-6.30859375c0-7.66796875,2.173828125-11.5034179688,6.5263671875-11.5034179688,5.716796875,0,13.953125,6.4013671875,24.70703125,19.2036132812,10.7514648438,12.8022460938,20.4477539062,21.4936523438,29.0893554688,26.068359375,8.638671875,4.5776367188,19.048828125,6.865234375,31.2333984375,6.865234375,12.181640625,0,22.189453125-3.4326171875,30.021484375-10.2978515625,7.8315429688-6.8647460938,11.7470703125-15.9565429688,11.7470703125-27.2744140625s-6.33984375-21.3662109375-19.01953125-30.150390625c-5.4716796875-3.8325195312-19.3637695312-10.7612304688-41.67578125-20.7802734375-22.3149414062-10.0190429688-38.3833007812-19.974609375-48.2016601562-29.8720703125-12.9306640625-13.1098632812-19.3930664062-29.2514648438-19.3930664062-48.4262695312.1225585938-19.1713867188,7.6455078125-35.6235351562,22.5629882812-49.353515625,14.9174804688-13.8520507812,35.615234375-20.7807617188,62.09375-20.7807617188,7.5810546875,0,16.96875,1.1455078125,28.1567382812,3.4326171875,11.1879882812,2.2905273438,19.1420898438,3.4326171875,23.8676757812,3.4326171875l5.2211914062-.37109375,5.0346679688-.185546875c7.3334960938,0,12.2426757812,3.7744140625,14.7309570312,11.3178710938,2.4853515625,7.5463867188,3.7294921875,19.2353515625,3.7294921875,35.0673828125,0,10.1435546875-2.7358398438,15.2143554688-8.2045898438,15.2143554688-3.1088867188,0-9.6352539062-5.0708007812-19.5791015625-15.2143554688-9.947265625-10.1411132812-18.5244140625-17.4091796875-25.7329101562-21.8012695312-7.2109375-4.3891601562-16.4731445312-6.5864257812-27.7836914062-6.5864257812-11.3134765625,0-20.5434570312,3.4033203125-27.6904296875,10.2045898438-7.1499023438,6.8041992188-10.7216796875,14.2866210938-10.7216796875,22.4501953125,0,11.2573242188,5.7802734375,20.9052734375,17.3413085938,28.9443359375,4.72265625,3.33984375,18.8623046875,10.1440429688,42.4213867188,20.4096679688,23.5561523438,10.2685546875,39.6245117188,19.4814453125,48.2021484375,27.6455078125,8.5776367188,8.1635742188,14.451171875,16.4204101562,17.62109375,24.76953125s4.7548828125,15.556640625,4.7548828125,21.6157226562v7.0502929688c0,8.2885742188-1.9287109375,17.1333007812-5.7802734375,26.5322265625-3.8544921875,9.4018554688-10.1948242188,18.0610351562-19.0200195312,25.9755859375-16.2866210938,14.5971679688-38.5986328125,21.8940429688-66.9418945312,21.8940429688-7.583984375,0-18.3989257812-1.3627929688-32.4453125-4.08203125-14.0493164062-2.7192382812-22.4404296875-4.08203125-25.1733398438-4.08203125,0,0-6.6932044873.597802392-10.4423828125.7421875-7.3870901145.2844852155-13.0234375-4.0498046875-16.3159179688-12.1528320312-3.294921875-8.1000976562-4.94140625-21.3051757812-4.94140625-39.6127929688Z"/>
    <path class="cls-3" d="m303.7980057241,482.8904683347c0-6.2569649759,5.8490832192-17.0192584895,17.5467594152-32.2903122385,4.1508832132-5.3799211506,15.8162034045-18.4919469474,34.9989020286-39.3306847229,19.1797571692-20.838247533,32.9854760978-37.9839885865,41.4137250882-51.4391841304,8.4253075355-13.452254089,12.6409027582-25.7195920652,12.6409027582-36.7956407763,0-11.0765389536-3.0836252996-20.4632120236-9.2449929887-28.1605094526-6.1643096953-7.6968078746-14.6538615754-11.5457010222-26.6025188004-11.5457010222-11.574135087,0-22.8619685563,6.3216769853-33.8669321055,18.961109016-11.0079050041,12.6428637282-19.3390859804,18.9615992585-24.9994258387,18.9615992585-5.6598496158,0-8.4900195449-5.1921582746-8.4900195449-15.5823577339,0-6.5060081638,1.7276145557-13.32871298,5.1882363347-20.4627217811,3.4581705665-7.1340088011,8.8974110591-13.452254089,16.3201726903-18.961109016,15.5951040388-11.51383526,34.9665460239-17.2717333749,58.1113845004-17.2717333749,23.1418970215,0,41.9475991663,6.3535427476,56.4136747369,19.0547453327,14.4626438731,12.7046342826,21.6971523859,29.5067153465,21.6971523859,50.406733434,0,16.3976310047-5.7868224222,32.355024248-17.3580160542,47.8726699724-8.177735075,10.8882858351-24.3385789541,26.534865336-48.4889047898,46.9333653501-24.1503258357,20.4014414691-36.2254887535,32.7305499999-36.2254887535,36.9838938948,0,5.508854927,8.9297670638,8.2600958143,26.7917524039,8.2600958143,27.1692391258,0,47.5456782276-3.3792415246,61.1302977905-10.1372343313,6.9158508904-3.5027826336,12.3874473878-5.2568702841,16.4142992495-5.2568702841,4.0244006493,0,6.0378265802,5.7260323527,6.0378265802,17.1776068157,0,11.4520647055-2.2967860935,20.5892043451-6.8864399028,27.40946324-8.8609237292,13.1622787596-27.9614767888,10.1449474068-41.4683136584,9.9340815075-15.9080087837-.2483524907-31.7557928704-.7046026525-47.6519191896-1.2870686407-10.6889531082-.3916647056-21.3779062164-.7833294111-32.0668593247-1.1749941167-.5137587642-.0188251528-1.0309156745-.0566160476-1.5451131273-.0566160476-.2534553704,0-4.0886224163.1259923215-11.508932835.3755257519l-10.7544496337.3755257519c-11.697676196,0-17.5467594152-4.3180559044-17.5467594152-12.9536774706Z"/>
    <path class="cls-3" d="m510.4986043614,254.7157275775c0-5.55078125,3.9957927362-8.326171875,11.900390625-8.326171875s32.5417263483-.0653925946,37.9340820312,0c3.2879190674.039872288,5.392578125.0433263102,5.392578125.0433263102,29.9990234375,0,44.9985047065.2420736733,49.3649729331,1.0670252523,5.207947664.9839312747,7.8100585938,3.4228515625,7.8100585938,7.30859375,0,3.8852539062-3.9537440022,8.9736328125-11.5777674397,15.2646484375-7.6235351562,6.2905273438-12.5881520669,13.058463029-14.3225270669,20.5809239665-3.1000976562,13.5703125-4.8032206678,37.3698414373-4.5072005866,88.2568377097.1248835821,21.467970514.0000070888,42.4581837963.3720703125,55.5078105927.4816721005,16.8940135698,1.4808778984,25.1357442424,6.6407282071,31.3199473852,4.5449378664,5.4472159764,14.7338808887,12.481189109,28.6800294917,12.4185971254,15.5816836861-.0699324608,28.0521122177-2.4238457966,38.2063924215-9.7290833533s16.3300319601-16.0890124953,22.7326841089-23.5007680778c10.2117248375-11.8211651692,17.9732708001-18.021004192,23.9341781495-17.8234075113,4.0885745842.1355311732,6.4196950357,4.0576050335,6.4196950357,9.5349294107,0,25.6577148438-1.9029174787,46.4092975296-9.678257259,54.865495817-4.5772784735,4.9780942676-10.521353654,6.5627268393-24.0316075603,6.5627268393-26.7768554688.9887695312-39.0148213929,1.362844639-47.0715774173,1.4799804688-5.3373451026.0775987687-69.6247039554.740234375-69.6247039554.740234375h-34.21484375c-12.76953125,0-19.1528320312-3.0547780492-19.1528320312-10.1762695312,0-3.6312366718,4.8366567928-6.3273639059,13.2021484375-17.0224609375,4.0913085938-5.1806640625,7.06640625-14.1225585938,8.92578125-26.8286132812,1.859375-12.703125,2.6273535227-35.3854106046,2.6473302166-67.904296875.0199454497-32.4680258573-.2635191173-58.6046783361-.3715820313-82.0957992433-.0351769253-7.6468917469-1.2407226562-13.492318221-3.7192382812-17.2564783772-2.4809570312-3.7612304688-7.2962559978-7.820443221-14.734244279-11.890755721-7.4379882812-4.0708007812-11.1567382812-8.2021484375-11.1567382812-12.3969726562Z"/>
  </g>
</svg>